<svg width="33" height="33" viewBox="0 0 33 33" fill="none" xmlns="http://www.w3.org/2000/svg">
<path d="M16.4769 24.3111C14.7939 22.1991 13.8039 20.3478 13.4739 18.7638C13.1439 17.4768 13.2759 16.4538 13.8369 15.6948C14.4309 14.8038 15.3219 14.3748 16.4769 14.3748C17.6319 14.3748 18.5229 14.8038 19.1169 15.6948C19.6779 16.4538 19.8099 17.4768 19.4799 18.7638C19.1169 20.3808 18.1269 22.2288 16.4769 24.3111ZM28.4295 25.7301C28.1985 27.2811 27.1425 28.5681 25.6905 29.1951C22.8855 30.4161 20.1102 28.4691 17.7342 25.8291C21.6645 20.9088 22.3905 17.0808 20.7042 14.6025C19.7142 13.1835 18.2952 12.4905 16.4769 12.4905C12.8139 12.4905 10.7976 15.5925 11.5896 19.1928C12.0516 21.1398 13.2726 23.3541 15.2196 25.8291C13.9986 27.1821 12.8436 28.1391 11.8206 28.7331C11.0286 29.1621 10.2696 29.4261 9.54361 29.4921C6.21061 29.9871 3.60031 26.7531 4.78831 23.4168C4.95331 22.9878 5.28331 22.1958 5.84431 20.9748L5.87731 20.9088C7.69231 16.9455 9.90661 12.4575 12.4476 7.47121L12.5136 7.30621L13.2396 5.92021C13.8006 4.89721 14.0316 4.43521 14.9226 3.87421C15.3516 3.61021 15.8796 3.47821 16.4736 3.47821C17.6616 3.47821 18.5856 4.17121 18.9816 4.73221C19.1796 5.02921 19.4106 5.42521 19.7076 5.92021L20.4006 7.27321L20.4996 7.47121C23.0406 12.4575 25.2549 16.9455 27.0699 20.9088L27.1029 20.9418L27.7629 22.4598L28.1589 23.4168C28.4625 24.1791 28.5285 24.9381 28.4295 25.7301ZM29.9475 22.7568C29.7165 22.0308 29.3205 21.1728 28.8255 20.1498V20.1168C26.4825 15.1305 24.3012 10.6425 22.2222 6.61321L22.0902 6.41521C20.6052 3.37921 19.5492 1.56091 16.4769 1.56091C13.4409 1.56091 12.1506 3.67291 10.8306 6.41521L10.7316 6.61321C8.65261 10.6425 6.47131 15.1305 4.12831 20.1168V20.1828L3.43531 21.7008C3.17131 22.3278 3.03931 22.6578 3.00631 22.7568C1.32331 27.3801 4.78831 31.4391 8.98261 31.4391C9.01561 31.4391 9.14761 31.4391 9.31261 31.4061H9.77461C11.9526 31.1421 14.1999 29.7561 16.4769 27.2778C18.7539 29.7528 21.0012 31.1421 23.1792 31.4061H23.6412C23.8062 31.4391 23.9382 31.4391 23.9712 31.4391C28.1655 31.4424 31.6305 27.3801 29.9475 22.7568Z" fill="#BF9F50"/>
</svg>
