<svg width="105" height="18" viewBox="0 0 105 18" fill="none" xmlns="http://www.w3.org/2000/svg">
<g clip-path="url(#clip0_42_7)">
<path d="M41.2369 1.8327C41.2369 1.40685 41.4042 0.998454 41.7021 0.697339C42 0.396224 42.4041 0.227058 42.8254 0.227058C43.2467 0.227058 43.6507 0.396224 43.9486 0.697339C44.2465 0.998454 44.4139 1.40685 44.4139 1.8327C44.3986 2.24817 44.2245 2.64145 43.9282 2.92991C43.632 3.21836 43.2367 3.37952 42.8254 3.37952C42.4141 3.37952 42.0187 3.21836 41.7225 2.92991C41.4263 2.64145 41.2522 2.24817 41.2369 1.8327Z" fill="#BF9F50"/>
<path d="M66.3002 12.541C66.3002 11.6499 67.0104 10.9298 67.8854 10.9298C68.3079 10.9298 68.7131 11.0995 69.0118 11.4014C69.3105 11.7034 69.4784 12.1129 69.4784 12.5399C69.4784 12.9669 69.3105 13.3765 69.0118 13.6784C68.7131 13.9804 68.3079 14.15 67.8854 14.15C67.0115 14.15 66.3002 13.4288 66.3002 12.5399" fill="#BF9F50"/>
<path d="M15.167 11.8444C13.7997 11.8444 12.8484 10.7464 12.8484 9.17654C12.8484 7.6078 13.7997 6.51092 15.1681 6.51092C16.5431 6.51092 17.5044 7.6078 17.5044 9.17654C17.5044 10.771 16.5641 11.8444 15.167 11.8444ZM15.167 4.1662C12.2731 4.1662 10.1724 6.27387 10.1724 9.17654C10.1724 12.0803 12.2743 14.1869 15.167 14.1869C18.073 14.1869 20.1814 12.0803 20.1814 9.17766C20.1814 6.27387 18.073 4.1662 15.1681 4.1662H15.167ZM38.1605 9.42812C38.0598 9.23123 37.9325 9.04947 37.7822 8.88806L37.6937 8.79526L37.7866 8.70581C37.9194 8.56381 38.0554 8.39609 38.1859 8.20153L40.7413 4.36411H37.6395L35.7202 7.36629C35.6118 7.5273 35.3928 7.6078 35.0643 7.6078H34.6273V1.93217C34.6273 0.797265 33.9271 0.642963 33.1716 0.642963H31.8773L31.8806 14.0393H34.6284V10.0207H34.8862C35.1992 10.0207 35.4116 10.0576 35.51 10.2298L37.0255 13.1213C37.4492 13.9062 37.8707 14.0393 38.6649 14.0393H40.77L39.2015 11.4184L38.1616 9.42812H38.1605ZM51.4992 4.14383C50.1009 4.14383 49.2093 4.77222 48.7093 5.30333L48.5434 5.47329L48.4836 5.24184C48.3376 4.67271 47.842 4.36075 47.0976 4.36075H45.8663L45.8741 14.0359H48.6031V9.57683C48.6031 9.14076 48.6584 8.76283 48.7734 8.41733C49.0765 7.37188 49.9239 6.72224 50.9825 6.72224C51.8343 6.72224 52.1673 7.17732 52.1673 8.35136V12.5656C52.1673 13.5674 52.6263 14.0359 53.6186 14.0359H54.9173L54.9129 7.88175C54.9129 5.43751 53.7326 4.14495 51.4992 4.14495V4.14383ZM42.8586 4.36411H41.5654L41.5742 11.8455V14.0393H42.9537L43.0024 14.0415L43.6462 14.0393H44.2856V14.0359H44.29L44.2955 5.83445C44.2955 4.8449 43.8276 4.36522 42.8597 4.36522L42.8586 4.36411ZM25.885 11.8444C24.5177 11.8444 23.5653 10.7464 23.5653 9.17654C23.5653 7.6078 24.5177 6.51092 25.8861 6.51092C27.2578 6.51092 28.2224 7.6078 28.2224 9.17654C28.2224 10.771 27.2821 11.8444 25.8861 11.8444H25.885ZM25.885 4.1662C22.9889 4.1662 20.8871 6.27387 20.8871 9.17654C20.8871 12.0803 22.989 14.1869 25.8861 14.1869C28.7877 14.1869 30.9005 12.0803 30.9005 9.17766C30.9005 6.27387 28.7877 4.1662 25.8861 4.1662" fill="#BF9F50"/>
<path d="M84.3755 11.8444C83.0082 11.8444 82.0547 10.7464 82.0547 9.17654C82.0547 7.6078 83.0082 6.51092 84.3755 6.51092C85.7494 6.51092 86.7129 7.6078 86.7129 9.17654C86.7129 10.771 85.7726 11.8444 84.3755 11.8444ZM84.3755 4.1662C81.4795 4.1662 79.3788 6.27387 79.3788 9.17654C79.3788 12.0803 81.4795 14.1869 84.3755 14.1869C87.2782 14.1869 89.3899 12.0803 89.3899 9.17766C89.3899 6.27387 87.2771 4.1662 84.3755 4.1662Z" fill="#BF9F50"/>
<path d="M60.6663 11.4184C59.174 11.4184 58.643 10.1035 58.643 8.87018C58.643 8.32677 58.779 6.55677 60.5235 6.55677C61.3897 6.55677 62.5434 6.80723 62.5434 8.96075C62.5434 10.9924 61.5225 11.4184 60.6663 11.4184ZM63.9605 4.3384C63.4428 4.3384 63.0446 4.54749 62.8444 4.92877L62.7691 5.07636L62.643 4.96455C62.2028 4.57991 61.4129 4.1226 60.1308 4.1226C57.5788 4.1226 55.8609 6.06032 55.8609 8.94174C55.8609 11.8221 57.6386 13.8347 60.1817 13.8347C61.0501 13.8347 61.737 13.629 62.2813 13.213L62.4914 13.0531V13.3215C62.4914 14.614 61.6651 15.3274 60.1662 15.3274C59.4372 15.3274 58.7746 15.1485 58.3299 14.9852C57.7525 14.8086 57.4118 14.9551 57.1784 15.5421L56.9616 16.0832L56.6551 16.8749L56.8443 16.9766C57.8045 17.491 59.0534 17.7985 60.1817 17.7985C62.5048 17.7985 65.2194 16.5965 65.2194 13.213L65.2293 4.3384H63.9605Z" fill="#BF9F50"/>
<path d="M5.00531 11.7337L2.78405 11.7315V9.04795C2.78405 8.47323 3.00419 8.17581 3.48981 8.10649H5.00531C6.08607 8.10649 6.78517 8.79526 6.78628 9.91003C6.78517 11.055 6.10377 11.7326 5.00531 11.7326V11.7337ZM2.78405 4.49269V3.78603C2.78405 3.1677 3.04291 2.87363 3.6104 2.83562H4.74759C5.72216 2.83562 6.30623 3.42487 6.30623 4.41218C6.30623 5.16356 5.90577 6.0413 4.78297 6.0413H2.78405V4.49269ZM7.84164 7.17173L7.44005 6.94363L7.79074 6.64062C8.19893 6.28617 8.88148 5.48894 8.88148 4.11364C8.88148 2.00708 7.26641 0.647432 4.76528 0.647432H1.58602C1.22829 0.660616 0.88931 0.812414 0.639295 1.07137C0.38928 1.33033 0.247411 1.67658 0.243103 2.03839V13.9912H4.82166C7.60155 13.9912 9.39583 12.4616 9.39583 10.0923C9.39583 8.8165 8.81621 7.72632 7.84164 7.17173Z" fill="#BF9F50"/>
<path d="M101.579 4.17621C101.016 4.1783 100.46 4.3083 99.9532 4.55661C99.4462 4.80491 99.0008 5.16517 98.65 5.61077L98.4531 5.86347L98.2983 5.58058C97.7916 4.64918 96.9222 4.17621 95.7131 4.17621C94.4443 4.17621 93.5936 4.89181 93.1987 5.3167L92.9398 5.59959L92.8402 5.22725C92.6964 4.69055 92.2241 4.39648 91.5095 4.39648H90.3623L90.3512 14.0348H92.9564V9.78028C92.9564 9.40683 93.0029 9.03896 93.0947 8.6532C93.3436 7.62452 94.0272 6.51869 95.1765 6.62939C95.8845 6.69871 96.2319 7.25219 96.2319 8.32112V14.0348H98.8558V9.78028C98.8558 9.31402 98.899 8.96516 99.0029 8.61631C99.2131 7.63459 99.9277 6.62827 101.036 6.62827C101.839 6.62827 102.136 7.0867 102.136 8.32112V12.6259C102.136 13.5987 102.565 14.0348 103.528 14.0348H104.754L104.756 7.88169C104.756 5.42292 103.685 4.17621 101.579 4.17621ZM77.8688 10.6882C77.8611 10.6983 76.7405 11.8924 75.2637 11.8924C73.9186 11.8924 72.5602 11.0583 72.5602 9.19662C72.5602 7.58874 73.6133 6.46502 75.1221 6.46502C75.6111 6.46502 76.1686 6.64169 76.256 6.94023L76.2682 6.99054C76.3239 7.19608 76.4452 7.37728 76.6132 7.50605C76.7812 7.63483 76.9865 7.70398 77.1973 7.70279L78.6244 7.70503V6.44378C78.6244 4.78 76.5303 4.17621 75.1221 4.17621C72.1088 4.17621 69.9229 6.29618 69.9229 9.21674C69.9229 12.1351 72.0845 14.2528 75.0668 14.2528C77.6531 14.2528 79.0602 12.5342 79.0735 12.5175L79.1487 12.4235L78.0182 10.5283L77.8688 10.6882Z" fill="#BF9F50"/>
</g>
<defs>
<clipPath id="clip0_42_7">
<rect width="105" height="18" fill="white"/>
</clipPath>
</defs>
</svg>
